<svg id="Capa_1" enable-background="new 0 0 512 512" height="512" viewBox="0 0 512 512" width="512" xmlns="http://www.w3.org/2000/svg"><g><path d="m166.213 337.706c27.136 0 49.212-23.128 49.212-51.557v-58.463c0-28.428-22.076-51.557-49.212-51.557s-49.213 23.129-49.213 51.558v58.463c0 28.428 22.077 51.556 49.213 51.556zm-19.213-110.019c0-11.886 8.619-21.557 19.213-21.557s19.212 9.67 19.212 21.557v58.463c0 11.886-8.618 21.557-19.212 21.557s-19.213-9.671-19.213-21.558z"/><path d="m287.213 337.706c27.136 0 49.212-23.128 49.212-51.557v-58.463c0-28.428-22.076-51.557-49.212-51.557s-49.213 23.129-49.213 51.558v58.463c0 28.428 22.077 51.556 49.213 51.556zm-19.213-110.019c0-11.886 8.619-21.557 19.213-21.557s19.212 9.67 19.212 21.557v58.463c0 11.886-8.618 21.557-19.212 21.557s-19.213-9.671-19.213-21.558z"/><path d="m58.703 337.979h30v-161.909h-40.703v30h10.703z"/><path d="m346.977 248.765h124.81v29.999h-124.81z" transform="matrix(.387 -.922 .922 .387 7.745 539.179)"/><path d="m431.764 297.307h30v30h-30z"/><path d="m361 197h30v30h-30z"/><path d="m0 90.99v330.02h512v-330.02zm482 300.02h-452v-270.02h452z"/></g></svg>