<svg id="Layer_1" data-name="Layer 1" xmlns="http://www.w3.org/2000/svg" viewBox="0 0 1829 1299.27"><defs><style>.cls-1,.cls-4{fill:#c5c6c7;}.cls-1,.cls-2{fill-rule:evenodd;}.cls-2,.cls-3{fill:#66fcf1;}</style></defs><path class="cls-1" d="M1639.1,1230.3l276.1-177.8-37.5-23.8-721.6-.2a3.11,3.11,0,0,0-2.3,2L1131,1191.4c-2.3,16.5-10.9,20-17.8,20h-.1c-6.9-.1-15.6-3.6-17.7-20.3l-59.6-454.5L972.7,1053c-3.3,16.7-13.9,19-18.3,19.2-4.2.3-15.1-1.1-19.9-17.4L885.9,888.3l-38,122.3c-4.6,14.9-19.9,26.2-35.5,26.2l-659.3-1,.2.2-2.9,351.1c-23.5,15.7-57.4,53.3-64.2,141,0,0,21.5,21.9,85.3,22.5h.1c.1,0,.2-.2.2.1,63.7.3,85.5-21.2,85.5-21.2-5.7-100-48.7-135.8-71-147.9l2.8-322.9,274.5,174.6-1,128.9s-40.71,58.67,145,82.48c27.17,3.48,59.2,6.22,96.91,7.92,365.4,16.5,970.1,41.6,933.5-80.2Z" transform="translate(-86.2 -503.6)"/><path class="cls-1" d="M607.59,1444.68" transform="translate(-86.2 -503.6)"/><path class="cls-1" d="M705.37,1360.18" transform="translate(-86.2 -503.6)"/><path class="cls-2" d="M1454.2,760.1h7V698.6h-61.5v27l-78.9-50h32.8V596.2h-79.4V646L1049.6,503.6,179,1004.2l633.2,1c1.7,0,4.9-2.2,5.4-3.9L866.5,844c4.8-15.6,15.3-17.3,19.7-17.3h.2c4.3.1,14.9,1.8,19.6,17.6l45.3,154.9,69.2-347.1c3.4-17,13.1-19.1,18.8-19.1,5.5.2,15.2,3.1,17.5,20.3l57,434.5,8.7-61.7c2.3-16.4,17.1-29.2,33.6-29.2l671.8.2Z" transform="translate(-86.2 -503.6)"/><rect class="cls-3" x="1318.7" y="69.6" width="53.9" height="53.8"/><rect class="cls-3" x="1418.55" y="281.82" width="53.9" height="53.8"/><rect class="cls-3" x="1428.89" y="150.3" width="53.9" height="53.8"/><rect class="cls-3" x="1418.55" y="8.15" width="46.1" height="46.1"/><path class="cls-4" d="M761.45,1528.07H734.13c-6.43,0-14.49,3.75-16.14,7.55l-12.46,19.23c-3.07,4.72-.26,8.32,6.59,8.32h29.11c6.84,0,14-3.6,16.6-8.32l10.68-19.23C770.92,1531.28,767.88,1528.07,761.45,1528.07Z" transform="translate(-86.2 -503.6)"/><path class="cls-4" d="M887.09,1654.84H853.31c-7.94,0-15.9,5.73-17.94,11.57L825,1696.26c-2.58,7.41,1.9,13.07,10.5,13.07H872c8.6,0,16.49-5.66,18.39-13.07l7.63-29.85C899.75,1659.75,895,1654.84,887.09,1654.84Z" transform="translate(-86.2 -503.6)"/><path class="cls-4" d="M787.74,1654.84H754c-7.94,0-17.76,5.73-19.67,11.57l-14.88,29.85c-3.69,7.41-.06,13.07,8.54,13.07h36.56c8.6,0,17.35-5.66,20.35-13.07l12.1-29.85C799.66,1659.75,795.69,1654.84,787.74,1654.84Z" transform="translate(-86.2 -503.6)"/><path class="cls-4" d="M729,1584.43H698.78c-7.11,0-16.29,4.58-18.41,9.23L665,1617.3c-3.78,5.84-.95,10.28,6.67,10.28H704.1c7.62,0,15.81-4.44,19-10.28l13.13-23.64C739.23,1588.35,736.07,1584.43,729,1584.43Z" transform="translate(-86.2 -503.6)"/><path class="cls-4" d="M817.77,1584.43H787.58c-7.11,0-15.61,4.58-17,9.23l-11.79,23.64c-2.9,5.84.59,10.28,8.22,10.28h32.39c7.62,0,15.14-4.44,17.5-10.28l9.59-23.64C828.61,1588.35,824.87,1584.43,817.77,1584.43Z" transform="translate(-86.2 -503.6)"/><path class="cls-4" d="M841.8,1528.07H814.48c-6.43,0-13.93,3.75-15,7.55l-9.58,19.23c-2.36,4.72,1,8.32,7.84,8.32h29.11c6.84,0,13.44-3.6,15.35-8.32l7.8-19.23C851.75,1531.28,848.23,1528.07,841.8,1528.07Z" transform="translate(-86.2 -503.6)"/><path class="cls-4" d="M1052.77,1627.58h32.39c7.62,0,13.14-4.44,12.88-10.28l-1-23.64c-.24-5.31-5.74-9.23-12.84-9.23H1054c-7.11,0-12.66,4.58-12.88,9.23l-1.15,23.64C1039.65,1623.14,1045.15,1627.58,1052.77,1627.58Z" transform="translate(-86.2 -503.6)"/><path class="cls-4" d="M688.39,1654.84H654.61c-7.94,0-18.62,5.73-21.4,11.57l-19.35,29.85c-4.81,7.41-2,13.07,6.57,13.07H657c8.6,0,18.2-5.66,22.31-13.07l16.58-29.85C699.58,1659.75,696.34,1654.84,688.39,1654.84Z" transform="translate(-86.2 -503.6)"/><path class="cls-4" d="M1319.69,1554.85c2.09,4.72,8.82,8.32,15.67,8.32h76.19c6.85,0,9.76-3.6,6.84-8.32l-11.89-19.23c-2.68-4.34-9.48-7.55-15.91-7.55h-71.51c-6.43,0-10.4,3.75-7.91,7.55Z" transform="translate(-86.2 -503.6)"/><path class="cls-4" d="M1054.56,1563.17h29.1c6.85,0,11.83-3.6,11.62-8.32l-.85-19.23c-.19-4.34-5.15-7.55-11.58-7.55h-27.32c-6.43,0-11.43,3.75-11.62,7.55l-.93,19.23C1042.75,1559.57,1047.71,1563.17,1054.56,1563.17Z" transform="translate(-86.2 -503.6)"/><path class="cls-4" d="M957.51,1627.58H989.9c7.62,0,13.8-4.44,14.42-10.28l2.5-23.64c.56-5.31-4.35-9.23-11.46-9.23H965.17c-7.1,0-13.34,4.58-14.26,9.23l-4.7,23.64C945.05,1623.14,949.88,1627.58,957.51,1627.58Z" transform="translate(-86.2 -503.6)"/><path class="cls-4" d="M969,1563.17h29.1c6.85,0,12.37-3.6,12.87-8.32l2-19.23c.46-4.34-4-7.55-10.45-7.55H975.18c-6.43,0-12,3.75-12.75,7.55l-3.82,19.23C957.68,1559.57,962.1,1563.17,969,1563.17Z" transform="translate(-86.2 -503.6)"/><path class="cls-4" d="M1163.2,1528.07h-27.32c-6.43,0-10.87,3.75-10.49,7.55l1.95,19.23c.48,4.72,6,8.32,12.83,8.32h29.1c6.85,0,11.29-3.6,10.38-8.32l-3.74-19.23C1175.07,1531.28,1169.63,1528.07,1163.2,1528.07Z" transform="translate(-86.2 -503.6)"/><path class="cls-4" d="M1356.77,1584.43h-30.19c-7.11,0-11.45,4.58-8.64,9.23l9.73,23.64c2.4,5.84,9.94,10.28,17.57,10.28h32.39c7.62,0,11.09-4.44,8.15-10.28l-11.93-23.64C1371.17,1588.35,1363.87,1584.43,1356.77,1584.43Z" transform="translate(-86.2 -503.6)"/><path class="cls-4" d="M1390.8,1654.84H1357c-8,0-12.55,5.73-9.15,11.57l12.28,29.85c3,7.41,11.83,13.07,20.43,13.07h36.56c8.6,0,12.2-5.66,8.46-13.07l-15.06-29.85C1407.18,1659.75,1398.75,1654.84,1390.8,1654.84Z" transform="translate(-86.2 -503.6)"/><path class="cls-4" d="M1243.55,1528.07h-27.32c-6.43,0-10.31,3.75-9.35,7.55l4.82,19.23c1.19,4.72,7.23,8.32,14.08,8.32h29.1c6.85,0,10.75-3.6,9.13-8.32l-6.62-19.23C1255.9,1531.28,1250,1528.07,1243.55,1528.07Z" transform="translate(-86.2 -503.6)"/><path class="cls-4" d="M906.56,1584.43H876.37c-7.1,0-14,4.58-15.64,9.23l-8.24,23.64c-2,5.84,2.13,10.28,9.75,10.28h32.39c7.62,0,14.48-4.44,16-10.28l6-23.64C918,1588.35,913.67,1584.43,906.56,1584.43Z" transform="translate(-86.2 -503.6)"/><path class="cls-4" d="M1443.79,1584.43H1413.6c-7.11,0-10.77,4.58-7.29,9.23l13.21,23.64c3.25,5.84,11.45,10.28,19.08,10.28H1471c7.62,0,10.44-4.44,6.63-10.28l-15.39-23.64C1458.77,1588.35,1450.89,1584.43,1443.79,1584.43Z" transform="translate(-86.2 -503.6)"/><path class="cls-4" d="M1443.91,1498l-1.1-.47c-16.36-7-34.11-11.09-50.41-11.09H1085.59c3.73-17.86,34.64-22.84,64.83-28.13,38.8-6.73,76.62-12.9,70.87-37-.79-4-7.54-7-14.61-7.37-7.69-.33-12.51,2.65-12.07,6.35,2.53,13.28-25.63,17.65-54.29,22.48-40.8,6.48-83.5,13.54-85.86,43.67H749.13c-16.3,0-34,4.1-50.39,11.09-16.81,7.18-31.36,17.09-40.12,28.44L512.78,1715.09c-16.89,21.9-22.83,43-17.83,59.63,5.23,17.36,21.84,28.15,48.58,28.15H1597.26c26.74,0,43.35-10.79,48.58-28.15,5-16.63-.94-37.73-17.83-59.63L1482.17,1526C1473.42,1514.61,1460,1505.19,1443.91,1498Zm139,216.13c7.64,10.76,10.32,20.83,7.53,28-2.13,8.41-10.64,12.69-23.22,12.69H574.73c-12.57,0-21.09-4.28-24-11.65s-.12-17.33,7.52-28.11L692.24,1526c4.06-5.74,10.81-10.84,18.73-14.36a59.56,59.56,0,0,1,25.66-5.92h668.3a59.58,59.58,0,0,1,24.89,5.92l1.12.5c7.94,3.52,14.71,8.64,18.41,13.86l133.54,188.16Z" transform="translate(-86.2 -503.6)"/><path class="cls-4" d="M1488.16,1654.84h-33.78c-7.94,0-11.71,5.73-7.45,11.57l16.67,29.85c4.14,7.41,13.75,13.07,22.35,13.07h36.56c8.6,0,11.36-5.66,6.54-13.07l-19.44-29.85C1505.27,1659.75,1496.11,1654.84,1488.16,1654.84Z" transform="translate(-86.2 -503.6)"/><path class="cls-4" d="M922.15,1528.07H894.83c-6.43,0-12.55,3.75-13.88,7.55l-6.7,19.23c-1.64,4.72,2.24,8.32,9.09,8.32h29.11c6.84,0,12.9-3.6,14.11-8.32l4.91-19.23C932.58,1531.28,928.58,1528.07,922.15,1528.07Z" transform="translate(-86.2 -503.6)"/><path class="cls-4" d="M1261.75,1584.43h-30.19c-7.1,0-11.28,4.58-10.11,9.23l5.93,23.64c1.47,5.84,8.3,10.28,15.92,10.28h32.39c7.62,0,11.81-4.44,9.8-10.28l-8.13-23.64C1275.53,1588.35,1268.86,1584.43,1261.75,1584.43Z" transform="translate(-86.2 -503.6)"/><path class="cls-4" d="M1169.25,1654.84H952.67c-7.95,0-15,5.73-16.21,11.57l-5.93,29.85c-1.47,7.41,3.86,13.07,12.46,13.07h234.39c8.6,0,14.08-5.66,12.82-13.07l-5.07-29.85C1184,1659.75,1177.2,1654.84,1169.25,1654.84Z" transform="translate(-86.2 -503.6)"/><path class="cls-4" d="M1173,1584.43h-30.19c-7.11,0-12,4.58-11.5,9.23l2.39,23.64c.59,5.84,6.76,10.28,14.38,10.28h32.39c7.62,0,12.47-4.44,11.34-10.28l-4.59-23.64C1186.15,1588.35,1180.06,1584.43,1173,1584.43Z" transform="translate(-86.2 -503.6)"/><path class="cls-4" d="M1284.5,1654.84h-33.78c-8,0-12.47,5.73-11,11.57l7.5,29.85c1.86,7.41,9.73,13.07,18.33,13.07h36.56c8.6,0,13.1-5.66,10.55-13.07l-10.27-29.85C1300.09,1659.75,1292.44,1654.84,1284.5,1654.84Z" transform="translate(-86.2 -503.6)"/></svg>